<svg aria-hidden="true" style="position: absolute; width: 0; height: 0; overflow: hidden;" version="1.1" xmlns="http://www.w3.org/2000/svg" xmlns:xlink="http://www.w3.org/1999/xlink">
<defs>
<symbol id="arrow" viewBox="0 0 143 32">
<path fill="#951c81" style="fill: var(--color1, #951c81)" d="M141.824 25.497c0.036 0.067 0.055 0.146 0.050 0.229-0.012 0.234-0.204 0.416-0.435 0.418h-0.001l-5.465 0.059c-0.009 0-0.019-0-0.029-0.001-0.243-0.013-0.43-0.22-0.417-0.463 0.004-0.075 0.027-0.145 0.063-0.206l-0.001 0.002 2.92-4.898c0.083-0.137 0.234-0.223 0.402-0.214 0.16 0.008 0.296 0.101 0.366 0.233l0.001 0.002z"></path>
<path fill="none" stroke="#951c81" style="stroke: var(--color1, #951c81)" stroke-linejoin="miter" stroke-linecap="butt" stroke-miterlimit="4" stroke-width="0.9294" d="M0.274 24.235c21.619-13.782 48.074-21.328 76.144-19.857 22.612 1.185 43.571 8.080 61.553 19.214l-0.656-0.374"></path>
</symbol>
</defs>
</svg>
